<svg width="42" height="42" viewBox="0 0 42 42" fill="none" xmlns="http://www.w3.org/2000/svg">
<path fill-rule="evenodd" clip-rule="evenodd" d="M8.27761 2.59711C5.11615 2.59711 2.59708 5.07348 2.59708 8.07508V32.1631C2.59708 34.7771 4.71615 36.8962 7.33016 36.8962H34.1076C34.1076 36.8962 34.1078 36.8962 34.1078 37.6981C34.1078 38.5001 34.1078 38.5001 34.1077 38.5001H7.33016C3.83034 38.5001 0.993164 35.6629 0.993164 32.1631V8.07508C0.993164 4.14005 4.27871 0.993195 8.27761 0.993195H33.6091C37.608 0.993195 40.8936 4.14005 40.8936 8.07508V31.7143C40.8936 35.462 37.8554 38.5001 34.1077 38.5001L34.1078 37.6981L34.1076 36.8962C36.9694 36.8962 39.2897 34.5762 39.2897 31.7143V8.07508C39.2897 5.07349 36.7706 2.59711 33.6091 2.59711H8.27761Z" fill="#101928"/>
<path d="M15.8211 8.97574H8.97559V18.1908H15.8211C18.0459 18.1908 20.139 16.7164 20.139 13.5833C20.139 10.4502 18.0459 8.97574 15.8211 8.97574ZM14.7679 15.2947H12.3983V11.8719H14.7679C15.5051 11.8719 16.7163 11.8719 16.7163 13.5833C16.7163 15.2947 15.5051 15.2947 14.7679 15.2947Z" fill="#101928"/>
<path d="M29.8818 18.1908H33.6468L29.8292 8.97574H24.7477L20.93 18.1908H24.695L25.3269 16.5321H29.2499L29.8818 18.1908ZM26.2221 14.1625L27.2884 11.3453L28.3547 14.1625H26.2221Z" fill="#101928"/>
<path d="M19.02 26.208C19.4676 25.6814 19.7441 25.0758 19.7441 24.4834C19.7441 23.088 19.099 22.1402 17.0059 22.1402H8.97559V31.3553H17.4008C19.494 31.3553 20.4023 30.1441 20.4023 28.6302C20.4023 27.6297 19.8231 26.7872 19.02 26.208ZM12.3983 24.3781H15.5578C15.9001 24.3781 16.3213 24.3781 16.3213 24.8784C16.3213 25.3786 15.9001 25.3786 15.5578 25.3786H12.3983V24.3781ZM16.216 28.854H12.3983V27.8798H16.216C16.5583 27.8798 16.9796 27.8798 16.9796 28.3669C16.9796 28.854 16.5583 28.854 16.216 28.854Z" fill="#101928"/>
<path d="M30.5503 31.3553H34.3153L30.4977 22.1402H25.4162L21.5985 31.3553H25.3635L25.9954 29.6965H29.9184L30.5503 31.3553ZM26.8906 27.3269L27.9569 24.5098L29.0233 27.3269H26.8906Z" fill="#101928"/>
<rect x="14.3613" y="36.5014" width="12.566" height="2.39353" fill="#101928"/>
</svg>
