<svg width="24" height="25" viewBox="0 0 24 25" fill="none" xmlns="http://www.w3.org/2000/svg">
<g clip-path="url(#clip0_2873_2047)">
<path fill-rule="evenodd" clip-rule="evenodd" d="M21.0678 0.5C22.6861 0.5 24 1.81391 24 3.43222V21.5678C24 23.1861 22.6861 24.5 21.0678 24.5H16.0771V15.4571H19.199L19.793 11.5843H16.0771V9.07095C16.0771 8.01144 16.5961 6.97864 18.2605 6.97864H19.95V3.68145C19.95 3.68145 18.4167 3.4198 16.9508 3.4198C13.8905 3.4198 11.8902 5.27459 11.8902 8.63248V11.5843H8.48836V15.4571H11.8902V24.5H2.93222C1.31391 24.5 0 23.1861 0 21.5678V3.43222C0 1.81391 1.31386 0.5 2.93222 0.5L21.0678 0.5Z" fill="black"/>
</g>
<defs>
<clipPath id="clip0_2873_2047">
<rect width="24" height="24" fill="white" transform="translate(0 0.5)"/>
</clipPath>
</defs>
</svg>
