<svg width="24" height="25" viewBox="0 0 24 25" fill="none" xmlns="http://www.w3.org/2000/svg">
<path d="M11.9375 7.56885C8.97456 7.56885 6.51953 9.98155 6.51953 12.9868C6.51953 15.9921 8.93223 18.4048 11.9375 18.4048C14.9428 18.4048 17.3555 15.9498 17.3555 12.9868C17.3555 10.0239 14.9005 7.56885 11.9375 7.56885ZM11.9375 16.4577C10.0328 16.4577 8.46662 14.8916 8.46662 12.9868C8.46662 11.0821 10.0328 9.51594 11.9375 9.51594C13.8423 9.51594 15.4084 11.0821 15.4084 12.9868C15.4084 14.8916 13.8423 16.4577 11.9375 16.4577Z" fill="black"/>
<path d="M17.5674 8.66938C18.2453 8.66938 18.7949 8.11981 18.7949 7.44187C18.7949 6.76393 18.2453 6.21436 17.5674 6.21436C16.8894 6.21436 16.3398 6.76393 16.3398 7.44187C16.3398 8.11981 16.8894 8.66938 17.5674 8.66938Z" fill="black"/>
<path d="M20.741 4.26719C19.6405 3.12433 18.0744 2.53174 16.2966 2.53174H7.57702C3.89448 2.53174 1.43945 4.98676 1.43945 8.6693V17.3466C1.43945 19.1667 2.03205 20.7328 3.21723 21.8757C4.36009 22.9762 5.8839 23.5264 7.61935 23.5264H16.2543C18.0744 23.5264 19.5982 22.9339 20.6987 21.8757C21.8416 20.7751 22.4342 19.209 22.4342 17.3889V8.6693C22.4342 6.89153 21.8416 5.36772 20.741 4.26719ZM20.5717 17.3889C20.5717 18.7011 20.1061 19.7593 19.3442 20.4788C18.5823 21.1984 17.5241 21.5794 16.2543 21.5794H7.61935C6.34951 21.5794 5.29131 21.1984 4.5294 20.4788C3.7675 19.7169 3.38654 18.6587 3.38654 17.3466V8.6693C3.38654 7.39946 3.7675 6.34126 4.5294 5.57936C5.24898 4.85978 6.34951 4.47883 7.61935 4.47883H16.3389C17.6088 4.47883 18.667 4.85978 19.4289 5.62169C20.1484 6.38359 20.5717 7.44179 20.5717 8.6693V17.3889Z" fill="black"/>
</svg>
