<svg width="24" height="25" viewBox="0 0 24 25" fill="none" xmlns="http://www.w3.org/2000/svg">
<path d="M2.40591 9.21163H6.62517V21.9088H2.40591V9.21163ZM4.54378 3.09106C3.0997 3.09106 2.15625 4.03911 2.15625 5.28346C2.15625 6.50221 3.07209 7.47781 4.48856 7.47781H4.51547C5.98716 7.47781 6.90366 6.50216 6.90366 5.28346C6.87605 4.03911 5.9872 3.09106 4.54378 3.09106ZM16.9846 8.91336C14.745 8.91336 13.7416 10.1452 13.1819 11.0091V9.21163H8.96137C9.01725 10.4028 8.96137 21.9088 8.96137 21.9088H13.1819V14.8178C13.1819 14.438 13.2095 14.0596 13.3206 13.7876C13.6261 13.0294 14.3205 12.2443 15.4853 12.2443C17.0136 12.2443 17.6239 13.4092 17.6239 15.1153V21.9087H21.8438V14.6279C21.8438 10.728 19.7624 8.91336 16.9846 8.91336Z" fill="black"/>
</svg>
