<svg width="42" height="42" viewBox="0 0 42 42" fill="none" xmlns="http://www.w3.org/2000/svg">
<path d="M8.27741 1.79517C4.69723 1.79517 1.79492 4.60678 1.79492 8.07509V32.1631C1.79492 35.22 4.27305 37.6981 7.32996 37.6981H14.1561H28.423H34.1076C37.4124 37.6981 40.0914 35.0191 40.0914 31.7143V8.07509C40.0914 4.60678 37.1891 1.79517 33.6089 1.79517H8.27741Z" fill="black"/>
<path d="M15.8211 8.97583H8.97559V18.1909H15.8211C18.0459 18.1909 20.139 16.7165 20.139 13.5834C20.139 10.4502 18.0459 8.97583 15.8211 8.97583ZM14.7679 15.2948H12.3983V11.872H14.7679C15.5051 11.872 16.7163 11.872 16.7163 13.5834C16.7163 15.2948 15.5051 15.2948 14.7679 15.2948Z" fill="white"/>
<path d="M29.8818 18.1909H33.6468L29.8292 8.97583H24.7477L20.93 18.1909H24.695L25.3269 16.5322H29.2499L29.8818 18.1909ZM26.2221 14.1626L27.2884 11.3454L28.3547 14.1626H26.2221Z" fill="white"/>
<path d="M19.02 26.2081C19.4676 25.6815 19.7441 25.0759 19.7441 24.4835C19.7441 23.0881 19.099 22.1403 17.0059 22.1403H8.97559V31.3553H17.4008C19.494 31.3553 20.4023 30.1442 20.4023 28.6303C20.4023 27.6298 19.8231 26.7873 19.02 26.2081ZM12.3983 24.3782H15.5578C15.9001 24.3782 16.3213 24.3782 16.3213 24.8785C16.3213 25.3787 15.9001 25.3787 15.5578 25.3787H12.3983V24.3782ZM16.216 28.8541H12.3983V27.8799H16.216C16.5583 27.8799 16.9796 27.8799 16.9796 28.367C16.9796 28.8541 16.5583 28.8541 16.216 28.8541Z" fill="white"/>
<path d="M30.5503 31.3553H34.3153L30.4977 22.1403H25.4162L21.5985 31.3553H25.3635L25.9954 29.6966H29.9184L30.5503 31.3553ZM26.8906 27.327L27.9569 24.5098L29.0233 27.327H26.8906Z" fill="white"/>
<rect x="14.3613" y="36.5015" width="12.566" height="2.39353" fill="white"/>
<path fill-rule="evenodd" clip-rule="evenodd" d="M8.27761 2.59732C5.11615 2.59732 2.59708 5.0737 2.59708 8.07529V32.1633C2.59708 34.7773 4.71615 36.8964 7.33016 36.8964H34.1076C34.1076 36.8964 34.1078 36.8964 34.1078 37.6983C34.1078 38.5003 34.1078 38.5003 34.1077 38.5003H7.33016C3.83033 38.5003 0.993164 35.6631 0.993164 32.1633V8.07529C0.993164 4.14027 4.27871 0.993408 8.27761 0.993408H33.6091C37.608 0.993408 40.8936 4.14027 40.8936 8.07529V31.7145C40.8936 35.4622 37.8554 38.5003 34.1077 38.5003L34.1078 37.6983L34.1076 36.8964C36.9694 36.8964 39.2897 34.5764 39.2897 31.7145V8.07529C39.2897 5.0737 36.7706 2.59732 33.6091 2.59732H8.27761Z" fill="white"/>
</svg>
